<svg xmlns="http://www.w3.org/2000/svg" xmlns:svg="http://www.w3.org/2000/svg" id="svg11278" width="1000" height="1000" version="1.1"><metadata id="metadata11283"/><g id="layer1" transform="translate(0,-52.3622)"><g id="g3314" transform="translate(292,700.9999)"><path id="rect25938" d="m -32,-388.63761 -240,200 0,80 240,200.000003 40,-40 0,-80 -160,-120.000003 160,-120 0,-80 z" style="color:#000;fill:#434350;fill-opacity:1;fill-rule:nonzero;stroke:none;stroke-width:2;marker:none;visibility:visible;display:inline;overflow:visible;enable-background:accumulate"/><g style="fill:#434350;fill-opacity:1;display:inline" id="g25967" transform="matrix(48.936172,0,0,48.936172,-36244.128,-5215.4464)"><path style="color:#000;fill:#434350;fill-opacity:1;fill-rule:nonzero;stroke:none;stroke-width:.28068599;marker:none;visibility:visible;display:inline;overflow:visible;enable-background:accumulate" id="path25969" d="m 744.8913,96.182611 -2.45217,13.895649 0.81739,0.81739 1.63479,0 2.45216,-13.895648 -0.81739,-0.817391 z"/></g><path style="color:#000;fill:#434350;fill-opacity:1;fill-rule:nonzero;stroke:none;stroke-width:2;marker:none;visibility:visible;display:inline;overflow:visible;enable-background:accumulate" id="path25975" d="m 448,-388.63761 240,200 0,80 -240,200.000003 -40,-40 0,-80 160,-120.000003 -160,-120 0,-80 z"/></g></g></svg>