<svg xmlns="http://www.w3.org/2000/svg" xmlns:svg="http://www.w3.org/2000/svg" id="svg11278" width="1000" height="1000" version="1.1"><metadata id="metadata11283"/><g id="layer1" transform="translate(0,-52.3622)"><path style="fill:#434350;fill-opacity:1;stroke:none;display:inline" id="path13866" d="M 57.968671,212.36576 C 25.009766,212.47843 25,214.30085 25,243.14685 l 0,38.4373 c 0,30.76907 0,30.7811 39.999904,30.7811 l 869.997906,0 c 40.0001,0 39.9999,-0.012 39.9999,-30.7811 l 0,-38.4373 c 0,-30.76907 1.02,-30.74924 -39.9999,-30.78109 l -869.997906,0 c -2.499994,0 -4.833973,-0.008 -7.031233,0 z M 34.874976,412.36474 C 24.987305,412.47742 25,414.29983 25,443.14583 l 0,38.43731 c 0,30.76907 0,30.78109 11.999971,30.78109 l 270.999349,0 c 12.00003,0 11.99997,-0.012 11.99997,-30.78109 l 0,-38.43731 c 0,-30.76907 0.306,-30.74924 -11.99997,-30.78109 l -270.999349,0 c -0.749998,0 -1.465816,-0.008 -2.124995,0 z m 404.249024,0 c -19.11616,0.11268 -19.12495,1.93509 -19.12495,30.78109 l 0,38.43731 c 0,30.76907 -0.0125,30.78109 23.18744,30.78109 l 508.62378,0 c 23.20004,0 23.18744,-0.012 23.18744,-30.78109 l 0,-38.43731 c 0,-30.76907 0.6041,-30.74924 -23.18744,-30.78109 l -508.62378,0 c -1.44999,0 -2.78808,-0.008 -4.06249,0 z M 34.874976,612.36372 C 24.987305,612.4764 25,614.29881 25,643.14482 l 0,38.4373 c 0,30.76908 0,30.7811 11.999971,30.7811 l 270.999349,0 c 12.00003,0 11.99997,-0.012 11.99997,-30.7811 l 0,-38.4373 c 0,-30.76908 0.306,-30.74925 -11.99997,-30.7811 l -270.999349,0 c -0.749998,0 -1.465816,-0.008 -2.124995,0 z m 404.249024,0 c -19.11616,0.11268 -19.12495,1.93509 -19.12495,30.7811 l 0,38.4373 c 0,30.76908 -0.0125,30.7811 23.18744,30.7811 l 508.62378,0 c 23.20004,0 23.18744,-0.012 23.18744,-30.7811 l 0,-38.4373 c 0,-30.76908 0.6041,-30.74925 -23.18744,-30.7811 l -508.62378,0 c -1.44999,0 -2.78808,-0.008 -4.06249,0 z M 34.874976,812.36271 C 24.987305,812.47539 25,814.2978 25,843.1438 l 0,38.4374 c 0,30.769 0,30.781 11.999971,30.781 l 270.999349,0 c 12.00003,0 11.99997,-0.012 11.99997,-30.781 l 0,-38.4374 c 0,-30.76907 0.306,-30.74924 -11.99997,-30.78109 l -270.999349,0 c -0.749998,0 -1.465816,-0.008 -2.124995,0 z m 404.249024,0 c -19.11616,0.11268 -19.12495,1.93509 -19.12495,30.78109 l 0,38.4374 c 0,30.769 -0.0125,30.781 23.18744,30.781 l 508.62378,0 c 23.20004,0 23.18744,-0.012 23.18744,-30.781 l 0,-38.4374 c 0,-30.76907 0.6041,-30.74924 -23.18744,-30.78109 l -508.62378,0 c -1.44999,0 -2.78808,-0.008 -4.06249,0 z"/></g></svg>